Coordinates
version=1
nRows=13
nColumns=40
inDegrees=yes

Units are S.I. units (second, meters, Newtons, ...)
Angles are in degrees.

endheader
time	pelvis_tilt	pelvis_list	pelvis_rotation	pelvis_tx	pelvis_ty	pelvis_tz	hip_flexion_r	hip_adduction_r	hip_rotation_r	knee_angle_r	knee_angle_r_beta	ankle_angle_r	subtalar_angle_r	mtp_angle_r	hip_flexion_l	hip_adduction_l	hip_rotation_l	knee_angle_l	knee_angle_l_beta	ankle_angle_l	subtalar_angle_l	mtp_angle_l	lumbar_extension	lumbar_bending	lumbar_rotation	arm_flex_r	arm_add_r	arm_rot_r	elbow_flex_r	pro_sup_r	wrist_flex_r	wrist_dev_r	arm_flex_l	arm_add_l	arm_rot_l	elbow_flex_l	pro_sup_l	wrist_flex_l	wrist_dev_l
     17.19000000	     -1.83020554	     -5.20473206	     -1.10631008	      1.04946750	      0.92599401	      0.49294120	     17.90867432	      3.06021977	    -11.73272106	     20.72164170	     20.72164170	      7.00045848	     -2.42115000	     -5.31721661	      9.65229992	     -9.98298547	     -3.53048201	     41.49116748	     41.49116748	     14.03688376	    -15.18304733	     -7.26078239	    -10.96296993	      6.08918783	      0.53195931	      6.46714154	    -16.59742444	     -2.45303259	     43.16877111	     45.28135735	      0.00000000	      0.00000000	      7.95737041	    -11.73810864	     -3.38103842	     45.82998072	     46.23357817	      0.00000000	      0.00000000
     17.20314286	     -1.75796075	     -5.41084528	     -0.72567477	      1.04970400	      0.92619707	      0.49526436	     17.35937044	      3.39817022	    -12.04255954	     20.58376123	     20.58376123	      7.35487647	     -2.49747461	     -5.44001095	     11.77219348	    -10.58121636	     -2.58518540	     45.64598174	     45.64598174	     12.15134703	    -16.00383869	     -7.48474176	    -11.07220506	      6.32252067	      0.75278258	      7.52707384	    -16.79741776	     -2.42475051	     43.55142270	     45.27521869	      0.00000000	      0.00000000	      7.45136971	    -11.60162360	     -3.30521997	     45.38464143	     46.21885703	      0.00000000	      0.00000000
     17.21628571	     -1.64077583	     -5.55596014	     -0.38770581	      1.04979473	      0.92649336	      0.49757092	     16.76924482	      3.69617318	    -12.25042896	     20.43758221	     20.43758221	      7.72391588	     -2.57889976	     -5.55822145	     13.79386061	    -11.06834006	     -1.70859542	     49.52639214	     49.52639214	     10.17048320	    -16.62100678	     -7.41243371	    -11.24749634	      6.46072732	      1.05663611	      8.67930669	    -16.98529970	     -2.37287584	     43.97438914	     45.26627825	      0.00000000	      0.00000000	      7.05162494	    -11.51811536	     -3.23878904	     44.94495308	     46.20575675	      0.00000000	      0.00000000
     17.22942857	     -1.66141696	     -5.68090603	     -0.00494856	      1.04974031	      0.92662721	      0.49965204	     16.32764864	      3.95710050	    -12.50142666	     20.25009135	     20.25009135	      7.90405007	     -2.75387224	     -5.60578139	     15.98319172	    -11.46315847	     -0.81687180	     53.17357015	     53.17357015	      8.26090796	    -17.13449303	     -6.95460962	    -11.21010578	      6.62554775	      1.16547144	      9.71580826	    -17.13709325	     -2.24128924	     44.44158255	     45.25140934	      0.00000000	      0.00000000	      6.46519932	    -11.39671388	     -3.14765979	     44.31872738	     46.18695285	      0.00000000	      0.00000000
     17.24257143	     -1.74122271	     -5.66177590	      0.36453546	      1.04942926	      0.92675751	      0.50172906	     15.99309566	      4.12538439	    -12.45043229	     20.08645990	     20.08645990	      8.02831987	     -3.38991074	     -5.90398466	     18.26106723	    -11.51743658	      0.18249625	     56.64709141	     56.64709141	      7.87326437	    -17.06810521	     -2.57559575	    -11.14091001	      6.52017825	      0.98101602	     10.95076775	    -17.45399054	     -0.43755520	     45.38580170	     45.15869731	      0.00000000	      0.00000000	      6.12214842	    -11.36177161	     -3.18988631	     42.46686062	     46.18685896	      0.00000000	      0.00000000
     17.25571429	     -1.69142269	     -5.71399594	      0.68891542	      1.04912132	      0.92715100	      0.50385502	     15.46682660	      4.33414125	    -12.63746499	     19.86055191	     19.86055191	      8.28499449	     -3.38617878	     -5.93457953	     20.10364204	    -11.82304810	      0.73799096	     59.22290158	     59.22290158	      6.29088450	    -17.37028865	     -1.97150457	    -11.30907380	      6.49095303	      1.43289663	     12.03362238	    -17.68919690	     -0.43180475	     45.88195977	     45.14895705	      0.00000000	      0.00000000	      5.73468374	    -11.22922838	     -3.17168259	     42.22068038	     46.17971272	      0.00000000	      0.00000000
     17.26885714	     -1.81784840	     -5.65746454	      1.08904840	      1.04860709	      0.92735726	      0.50565143	     15.16802641	      4.42405660	    -12.70370360	     19.65078503	     19.65078503	      8.43286127	     -3.77665987	     -5.86771662	     22.25828920	    -11.76271927	      1.50069012	     61.68669681	     61.68669681	      6.89110961	    -17.16607495	      3.70327600	    -11.22480026	      6.37606572	      1.22298004	     12.84031891	    -17.95587977	      0.86250127	     47.78207471	     45.04924052	      0.00000000	      0.00000000	      5.17046966	    -11.15949208	     -3.54821759	     41.04004163	     46.21579596	      0.00000000	      0.00000000
     17.28200000	     -1.91012863	     -5.62355159	      1.45502109	      1.04801081	      0.92771127	      0.50750514	     14.78578523	      4.52962091	    -12.89460597	     19.35267410	     19.35267410	      8.60470549	     -3.82834686	     -5.73861533	     24.10754748	    -11.86806010	      1.90422407	     63.24841503	     63.24841503	      6.82892735	    -17.27734253	      6.55623678	    -11.24708145	      6.23957259	      1.42540188	     13.69726904	    -18.25995224	      1.47745573	     49.19334321	     45.01010280	      0.00000000	      0.00000000	      4.74987584	    -10.96437608	     -3.93813076	     40.28786246	     46.25551132	      0.00000000	      0.00000000
     17.29514286	     -2.00991896	     -5.58037007	      1.84148468	      1.04737622	      0.92813711	      0.50929132	     14.38596351	      4.62883384	    -13.08377798	     18.99784563	     18.99784563	      8.72883897	     -3.91566793	     -5.64586021	     25.72541333	    -12.01016595	      2.08968629	     63.94765234	     63.94765234	      6.21612899	    -17.81557267	      7.03181477	    -11.24850767	      6.09193379	      1.54937361	     14.80058662	    -18.25339507	      1.39976923	     49.96251492	     44.99551811	      0.00000000	      0.00000000	      4.18565923	    -10.92002314	     -3.93066243	     39.84106407	     46.24559235	      0.00000000	      0.00000000
     17.30828571	     -2.11671666	     -5.48172661	      2.26426127	      1.04662819	      0.92864512	      0.51090454	     13.98533802	      4.66797635	    -13.23695360	     18.61395120	     18.61395120	      8.87606000	     -4.05566962	     -5.37836891	     27.30709957	    -12.02836004	      2.21520266	     64.18271151	     64.18271151	      6.95455213	    -18.05572082	     10.15641468	    -11.29028224	      5.88910094	      1.55239376	     15.37191486	    -18.44916819	      1.83369322	     52.55803350	     44.91850227	      0.00000000	      0.00000000	      3.85595309	    -10.77005707	     -4.49606122	     38.60405731	     46.30137772	      0.00000000	      0.00000000
     17.32142857	     -2.22837108	     -5.42765082	      2.70475363	      1.04587204	      0.92920707	      0.51243396	     13.51090585	      4.74966563	    -13.51133979	     18.07224958	     18.07224958	      8.94042046	     -4.01440021	     -5.22579391	     28.64913477	    -12.18287865	      2.09001304	     63.56497904	     63.56497904	      7.09639036	    -18.46939339	     10.72555377	    -11.30935225	      5.73142769	      1.39419872	     16.50310299	    -18.23958372	      1.72159963	     53.75124933	     44.89464517	      0.00000000	      0.00000000	      3.22715510	    -10.78318768	     -4.54972325	     37.94028364	     46.29588152	      0.00000000	      0.00000000
     17.33457143	     -2.33866838	     -5.36099593	      3.14817588	      1.04508587	      0.92982638	      0.51385590	     13.01424242	      4.81187014	    -13.82535563	     17.48894837	     17.48894837	      8.99005584	     -3.90531643	     -5.06670516	     29.80916402	    -12.32138760	      1.81543162	     62.29078733	     62.29078733	      7.60145939	    -18.73155156	     11.54017768	    -11.33166415	      5.57159267	      1.23023922	     17.50918307	    -18.02838001	      1.65166336	     55.24546706	     44.85736739	      0.00000000	      0.00000000	      2.64537405	    -10.77773221	     -4.65553961	     37.20778239	     46.29719043	      0.00000000	      0.00000000
     17.34771429	     -2.44621334	     -5.28480171	      3.60722514	      1.04430192	      0.93039016	      0.51503860	     12.50759449	      4.83697571	    -14.21793687	     16.90879332	     16.90879332	      9.07383747	     -3.67923542	     -4.94428222	     30.79350882	    -12.40219398	      1.43953419	     60.44806665	     60.44806665	      8.35507109	    -18.88642161	     12.52681415	    -11.37549743	      5.45452470	      1.16396399	     18.43128205	    -17.91859902	      1.58470116	     57.01335957	     44.81133803	      0.00000000	      0.00000000	      2.15669895	    -10.69537894	     -4.81568222	     36.42521596	     46.30623308	      0.00000000	      0.00000000
